<?xml version="1.0" encoding="utf-8"?>
<!-- Generator: Adobe Illustrator 24.3.0, SVG Export Plug-In . SVG Version: 6.00 Build 0)  -->
<svg version="1.1" id="Layer_1" xmlns="http://www.w3.org/2000/svg" xmlns:xlink="http://www.w3.org/1999/xlink" x="0px" y="0px"
	 viewBox="0 0 461.6 492" style="enable-background:new 0 0 461.6 492;" xml:space="preserve">
<style type="text/css">
	.st0{fill-rule:evenodd;clip-rule:evenodd;}
</style>
<g>
	<path class="st0" d="M339.2,202.3c2.8-3.7,6.1-7.2,9.2-10.7l17.1-19.9c-0.4-0.3-238.7-0.1-260.8-0.1c1,1.9,2.6,3.3,4,4.9l14.1,16.8
		c0.6,0.7,1.4,1.7,2,2.4c0.6,0.7,0.6,0.7,1.1,1.3l25.1,29.8c0.6,0.7,1.4,1.7,2,2.4c0.5,0.6,0.6,0.8,1.1,1.3l9.1,10.8
		c0.7,0.7,1.4,1.5,2,2.3c1.6,2,3.5,3.9,5,6c1.7,2.4,8.9,10.7,11.1,13.2l8,9.5c0.4,0.5,0.7,0.8,1.1,1.3l16.1,19.2
		c0.5,0.6,0.6,0.7,1,1.2c0.7,0.8,1.3,1.4,2,2.3c2.7,3.2,5.5,6.2,8,9.6c0.4,0.5,0.7,0.8,1.1,1.3c0.5,0.6,0.4,0.6,1,1.2l4.1,4.8
		c0.6,0.7,1.4,1.7,2,2.4l6,7.2c0.4,0.5,1.6,1.9,2,2.2c0.9-0.6,1.9-2,2.6-2.9l5.2-5.9c0.8-0.9,1.6-2,2.4-2.9l19-22
		c2.7-3.5,6.2-6.7,8.9-10.3c0.5-0.6,0.8-0.8,1.2-1.4c0.3-0.3,0.3-0.5,0.7-0.8c0.5-0.6,0.2-0.1,0.5-0.7h-36c-0.6-0.1-4.3-4.6-5-5.6
		l-7.1-8.5c-1.4-1.5-5.9-6.8-6.9-8.4h74.2c0.7-0.1,1.4-1.2,1.9-1.8l21.4-24.9c0.9-1.1,2.1-2.1,2.9-3.3c0.5-0.7-0.5,1,0.3-0.6H195.2
		c-0.8-0.2-6.7-7.5-7.4-8.3l-4.7-5.6c-2.1-2.2-4.1-5-6-7.2c-0.5-0.7-0.6-0.6-1-1.3H339.2z"/>
	<path class="st0" d="M104.7,153.2l260.7,0c-0.3-0.8-0.9-1.3-1.5-2l-5-5.8c-3.7-3.9-7.8-9.2-11.4-13.3l-5-5.8c-1-1-2.2-3-3.5-3.8
		H176c0.3-0.5,0.6-0.9,0.9-1.3l10.7-12.8c1-1,6.5-8.2,7.5-8.4h124.5c-1-1.8-12.3-14.3-14.6-17l-11.7-13.6l-74.6-0.1
		c0.5-1,1.5-2,2.3-2.9l7.2-8.4c0.8-0.9,1.4-1.8,2.3-2.7c2.5-2.6,4.6-5.9,7.1-8.4h36.1c-0.5-0.9-1.6-2.2-2.3-3l-12.6-14.5
		c-0.8-1-1.6-1.9-2.6-3L233.6,0c-2.1,2-6.1,7.1-8,9.5l-11,13c-0.4,0.6-0.4,0.6-1,1.2c-0.6,0.6-1.3,1.6-2,2.4
		c-0.8,0.9-1.3,1.5-2.1,2.4l-2.9,3.6c-1.6,2.1-3.5,4-5.2,6.1l-12.1,14.3c-0.6,0.7-1.3,1.6-2,2.4l-4.1,4.8c-0.5,0.6-0.5,0.6-1,1.2
		l-7.1,8.3c-0.7,0.8-1.4,1.7-2,2.6c-3.3,3.9-6.8,7.8-10,11.8c-0.4,0.5-0.7,0.7-1,1.1c-3.1,4.2-6.9,8-10.2,12.1l-4.9,5.9
		c-4.1,4.9-7.9,9.8-12.2,14.5l-2,2.3c-0.6,0.7-1.4,1.7-2,2.4c-0.7,0.8-1.5,1.7-2.1,2.5l-14,16.7c-0.4,0.5-0.7,0.7-1,1.1l-7.1,8.5
		C106.1,151.3,105,152.4,104.7,153.2L104.7,153.2z"/>
	<path class="st0" d="M321.6,416.7c0-8.4,0-16.9,0-25.3c0-4,0.2-7.3,2.1-10.4c1.7-2.7,4.5-4.3,7.9-4.6c9.2-0.9,9.8,7.2,9.8,15.3
		c0,8.3,0,16.7,0,25.1l15.5-0.1c0-8.4,0-16.8,0-25.3c0-4.5,0.1-7.1,2.1-10.4c1.4-2.3,4.1-4.3,7.9-4.6c9-0.8,9.7,7.3,9.7,15.3
		c0,8.4,0,16.7,0,25.1h15.5c0-8.4,0-16.9,0-25.3c0-7.8-0.9-15.4-4.8-20.5c-3.7-4.7-8.8-7.9-17.4-7.9c-3.8,0-7.7,0.7-10.8,2
		c-3.5,1.4-5.4,2.8-7.7,4.8c-1.8-1.6-3.3-3.3-6.2-4.7c-5.5-2.7-12.9-2.7-18.5-0.6c-4,1.5-5.6,3.1-7.1,3.7l-0.9-3.5h-12.4v52.1
		L321.6,416.7z"/>
	<path class="st0" d="M248.1,393.3c-3.1-19.9,24.6-23,27.2-5.2C278.2,408,250.9,411.2,248.1,393.3L248.1,393.3z M276.4,368.5
		c-1.4-0.5-5.7-4.8-13.8-5.4c-30.4-2.5-40,35.2-19,50.3c0.9,0.7,1.9,1.2,3,1.8c9.8,5.2,20.8,4.1,29.7-2.3l0.9,3.9l13-0.1l-0.1-52.1
		h-13L276.4,368.5z"/>
	<path class="st0" d="M22.5,384.2c3.8-11.5,21.5-12.4,25.4,0H22.5z M64,394.9c0.7-4.1,0.4-8.6-0.8-12.3c-1-3.4-2.9-6.9-4.7-9
		c-4.4-5.2-9.9-8.8-17.3-10.1c-27.4-4.7-42.9,22.7-30,42.5c12.5,19.1,44.2,15.6,51.4-5.8H46c-0.5,0.6-0.6,0.9-1.1,1.5
		c-3.1,3.6-8.2,4.8-13,3.5c-1.3-0.4-2.4-0.9-3.5-1.5c-1.4-0.8-1.8-1.4-2.8-2.3c-1.6-1.5-3-3.5-3.6-6.3C26.7,395,62.6,395.3,64,394.9
		L64,394.9z"/>
	<path class="st0" d="M419.8,384.2c0.7-2.4,3-5.2,4.6-6.3c2.4-1.7,4.5-2.6,8.2-2.7c7.1-0.1,10.1,3.5,12.6,8.9H419.8z M461.2,394.9
		c1.5-9.8-1.6-17.5-7.2-23.3c-0.5-0.5-1-1.2-1.6-1.7c-3.5-3.2-9-5.7-13.9-6.5c-27.4-4.7-42.8,22.9-30,42.5
		c10.2,15.8,35,16.4,46.5,2.7c1.6-1.9,4.4-5.4,4.9-8.6l-16.6,0c-1.4,2-2.8,3.5-5.5,4.6c-2.6,1-5.8,1.2-8.6,0.4
		c-4.5-1.3-8.9-5.3-9.9-10.1L461.2,394.9z"/>
	<path class="st0" d="M92.6,416.7c0-8.6-0.1-17.3,0-26c0.1-7.2,3.7-13.8,11.4-14.3c10-0.7,11.2,6.8,11.2,14.8
		c0,3.9-0.2,23.4,0.1,25.5l15.3,0c0.4-1.6,0.1-10,0.1-12.4c0-8.4,0.9-21.7-2.3-29c-0.7-1.6-1.1-2.5-2.1-3.9
		c-6.4-9.6-21.3-10.6-31.9-5.2c-1.4,0.7-2.7,1.7-3.9,2.2l-1-3.9l-12.4,0v52.1H92.6z"/>
	<path class="st0" d="M164.3,364.6c0-10.3,4.8-9.5,14-9.4v-12.6c-2.2-0.4-10.5-0.2-12.9,0c-11.7,1-16.6,9.3-16.6,21.9
		c-1.4,0.5-7.5,0.2-9.5,0.2l0,13.5c1.7-0.4,7.3-0.1,9.4-0.1l0.1,38.8l15.3,0c0.4-1.7,0.1-34.1,0.1-38.8h13.9l0.1-13.3L164.3,364.6z"
		/>
	<path class="st0" d="M461.6,441.2c0.3-2.8-1.3-2.2-5.2-2.2H1.5c-1.6,0.2-2,1.4-0.8,3l460.2-0.1L461.6,441.2z"/>
	<path class="st0" d="M204,416.7c0.9-2.9-0.6-23,0.6-28.9c2.5-11.6,13.7-9.3,19.6-9.8l-0.1-13.4c-2.3-0.5-10.3-0.1-12.7,0.4
		c-2.9,0.6-5.8,1.9-8.1,3.7l-1,0.6l-1.2-4.8l-12.3,0.1l0.1,52L204,416.7z"/>
	<path class="st0" d="M380.7,472c0.5,0.4,0.2,0.2,0.6,0.7l12.1,15.3c4.5,5.7,3.2,5,7,5c0-2.9-0.2-26.6,0.1-27.4l-3.7,0.1v20.7
		c-1.2-0.7-0.2-0.1-1.3-1.4l-15.3-19.5l-3.1,0.1l0,27.2h3.5V472z"/>
	<path class="st0" d="M112.6,472c0.2,0.2,0.2,0.1,0.4,0.4c0.1,0.1,0.2,0.2,0.2,0.3l16,20.3h3.1c0-2.9-0.2-26.5,0.1-27.4l-3.6,0.1
		l-0.1,20.7c-1-0.9-7.4-9.2-8.3-10.3l-6.3-7.9c-0.6-0.8-1.5-1.8-1.9-2.6l-3.1,0.1l0,27.2h3.5L112.6,472z"/>
	<path class="st0" d="M351.3,468.2c6.5-1,11.7,3.7,12.5,9.2c1,6.7-3.6,11.8-9.1,12.8c-6.7,1.1-11.9-3.8-12.7-9.4
		C341.1,474.5,345.2,469.2,351.3,468.2L351.3,468.2z M367.4,481c1.2-8.4-5.4-15.1-12.6-15.9c-8.4-1-15.2,4.8-16.3,12.1
		c-1.2,8.6,5.1,15.3,12.5,16.2C359.7,494.4,366.4,488.3,367.4,481L367.4,481z"/>
	<path class="st0" d="M83.3,468.2c14.2-2.3,17.7,19.6,3.3,22c-6.7,1.1-11.9-3.8-12.7-9.4C73.1,474.5,77.1,469.2,83.3,468.2
		L83.3,468.2z M99.3,481c1.1-8.4-5.3-14.9-12.5-15.9c-8.5-1.1-15.3,4.9-16.3,12.1c-1.2,8.6,5.1,15.3,12.5,16.2
		C91.6,494.4,98.3,488.4,99.3,481L99.3,481z"/>
	<path class="st0" d="M203.3,468.7c5.1,0,10.5-0.9,12.7,2.5c1.1,1.8,1,4.3-0.1,6c-2.1,3.4-7.7,2.4-12.5,2.4l-0.1-0.9V468.7z
		 M214.7,482.4c1.5-1.1,4.1-1.6,5.3-5.5c1-3.3,0.1-6.3-1.6-8.3c-1.7-2-4.1-3-7.8-3c-3.2,0-7.6-0.3-10.8,0.1l0,27.3h3.5v-10.1h7.2
		c0.8,0.2,4.9,7.9,5.7,9.2c0.8,1.3,0.8,0.9,4.6,0.9C219.9,490.8,215.1,483.7,214.7,482.4L214.7,482.4z"/>
	<path class="st0" d="M141.6,485c0.1,2,0.5,3,1.4,4.4c2.5,3.8,7.9,4.7,12.5,3.8c9.3-1.8,8.6-9.9,5.8-12.7c-4.2-4.2-14.6-2.3-15.3-7
		c-0.5-3.7,2.5-5.2,5.9-5.3c3.8-0.1,6.2,1.2,6.6,4.6l3.5,0c0-10.3-17.9-10.4-19.4-1.4c-1.6,8.8,8.2,8,13,9.5
		c3.6,1.2,4.8,3.9,3.5,6.7c-1.7,3.3-10.8,4.5-13.5-0.7C144.5,484.7,146.5,485,141.6,485L141.6,485z"/>
	<path class="st0" d="M409.7,485c0.4,7,7.4,9.5,13.9,8.2c9.2-1.8,8.7-9.9,5.8-12.7c-4.1-4.1-14.6-2.3-15.3-7
		c-0.5-3.7,2.5-5.2,5.9-5.3c3.8-0.1,6.2,1.2,6.6,4.6l3.5,0c0-10.3-17.8-10.4-19.4-1.4c-0.7,4,1,6.2,3.9,7.4c2.8,1.2,6.3,1.2,9.2,2.2
		c3.6,1.2,4.8,3.9,3.4,6.7c-1.2,2.3-5.2,3.2-8.5,2.6c-2.1-0.4-4.1-1.5-5-3.4C412.7,484.7,414.4,485,409.7,485L409.7,485z"/>
	<path class="st0" d="M285.2,484.2c-0.8,0.4-0.7,0.7-1.1,1.4c-2.5,3.9-7.3,5.5-11.7,4.4c-4.5-1.1-8.3-5.3-8.3-10.9
		c0.1-9.2,9.9-13.4,16.4-9.6c1.1,0.6,2,1.3,2.7,2.1c2.7,3.1,0.5,2.7,5.4,2.6c-2.5-7-9.5-10.2-16.1-9c-15.3,2.8-15.9,24.7-0.3,28
		c7.1,1.4,15-2.9,16.4-8.9H285.2z"/>
	<path class="st0" d="M58.9,484.2c-0.8,0.5-4.3,8-12.9,5.8c-11.3-3-10.6-19.2,0.3-21.6c6.1-1.4,10.6,2.1,12.3,5.9l3.6,0
		c-0.9-3.3-3.4-5.7-5.8-7.1c-9.2-5.6-22,0.5-22.2,12c-0.2,16.2,23,19.6,27.9,5.4C61.2,484.1,59.9,484.2,58.9,484.2L58.9,484.2z"/>
	<path class="st0" d="M228.9,465.6c0,3.3,0,6.5,0,9.8c0,6.3-1,11.5,4,15.6c5.5,4.6,16.6,2.8,18.3-6.2c0.5-2.4,0.2-15.8,0.2-19.3
		l-3.5,0.1c0,5.4,0.1,10.9,0,16.2c-0.1,11.3-15.4,11.7-15.4-0.2c0-5.4,0-10.7,0-16.1L228.9,465.6z"/>
	<polygon class="st0" points="295.7,468.7 304.3,468.8 304.3,492.9 307.8,492.9 307.8,468.7 316.4,468.7 316.4,465.8 316.5,465.6 
		295.7,465.6 	"/>
	<polygon class="st0" points="170.4,468.7 178.9,468.7 178.9,492.9 182.5,492.9 182.5,468.7 191.1,468.7 191.2,465.6 170.3,465.6 	
		"/>
	<polygon class="st0" points="325.2,492.9 328.7,492.9 328.7,465.8 328.8,465.5 325.1,465.7 	"/>
</g>
</svg>
