<?xml version="1.0" encoding="utf-8"?>
<!-- Generator: Adobe Illustrator 24.3.0, SVG Export Plug-In . SVG Version: 6.00 Build 0)  -->
<svg version="1.1" id="Layer_1" xmlns="http://www.w3.org/2000/svg" xmlns:xlink="http://www.w3.org/1999/xlink" x="0px" y="0px"
	 viewBox="0 0 461.6 328" style="enable-background:new 0 0 461.6 492;" xml:space="preserve">
<style type="text/css">
	.st0{fill-rule:evenodd;clip-rule:evenodd;}
</style>
<g>
	<path class="st0" d="M339.2,202.3c2.8-3.7,6.1-7.2,9.2-10.7l17.1-19.9c-0.4-0.3-238.7-0.1-260.8-0.1c1,1.9,2.6,3.3,4,4.9l14.1,16.8
		c0.6,0.7,1.4,1.7,2,2.4c0.6,0.7,0.6,0.7,1.1,1.3l25.1,29.8c0.6,0.7,1.4,1.7,2,2.4c0.5,0.6,0.6,0.8,1.1,1.3l9.1,10.8
		c0.7,0.7,1.4,1.5,2,2.3c1.6,2,3.5,3.9,5,6c1.7,2.4,8.9,10.7,11.1,13.2l8,9.5c0.4,0.5,0.7,0.8,1.1,1.3l16.1,19.2
		c0.5,0.6,0.6,0.7,1,1.2c0.7,0.8,1.3,1.4,2,2.3c2.7,3.2,5.5,6.2,8,9.6c0.4,0.5,0.7,0.8,1.1,1.3c0.5,0.6,0.4,0.6,1,1.2l4.1,4.8
		c0.6,0.7,1.4,1.7,2,2.4l6,7.2c0.4,0.5,1.6,1.9,2,2.2c0.9-0.6,1.9-2,2.6-2.9l5.2-5.9c0.8-0.9,1.6-2,2.4-2.9l19-22
		c2.7-3.5,6.2-6.7,8.9-10.3c0.5-0.6,0.8-0.8,1.2-1.4c0.3-0.3,0.3-0.5,0.7-0.8c0.5-0.6,0.2-0.1,0.5-0.7h-36c-0.6-0.1-4.3-4.6-5-5.6
		l-7.1-8.5c-1.4-1.5-5.9-6.8-6.9-8.4h74.2c0.7-0.1,1.4-1.2,1.9-1.8l21.4-24.9c0.9-1.1,2.1-2.1,2.9-3.3c0.5-0.7-0.5,1,0.3-0.6H195.2
		c-0.8-0.2-6.7-7.5-7.4-8.3l-4.7-5.6c-2.1-2.2-4.1-5-6-7.2c-0.5-0.7-0.6-0.6-1-1.3H339.2z"/>
	<path class="st0" d="M104.7,153.2l260.7,0c-0.3-0.8-0.9-1.3-1.5-2l-5-5.8c-3.7-3.9-7.8-9.2-11.4-13.3l-5-5.8c-1-1-2.2-3-3.5-3.8
		H176c0.3-0.5,0.6-0.9,0.9-1.3l10.7-12.8c1-1,6.5-8.2,7.5-8.4h124.5c-1-1.8-12.3-14.3-14.6-17l-11.7-13.6l-74.6-0.1
		c0.5-1,1.5-2,2.3-2.9l7.2-8.4c0.8-0.9,1.4-1.8,2.3-2.7c2.5-2.6,4.6-5.9,7.1-8.4h36.1c-0.5-0.9-1.6-2.2-2.3-3l-12.6-14.5
		c-0.8-1-1.6-1.9-2.6-3L233.6,0c-2.1,2-6.1,7.1-8,9.5l-11,13c-0.4,0.6-0.4,0.6-1,1.2c-0.6,0.6-1.3,1.6-2,2.4
		c-0.8,0.9-1.3,1.5-2.1,2.4l-2.9,3.6c-1.6,2.1-3.5,4-5.2,6.1l-12.1,14.3c-0.6,0.7-1.3,1.6-2,2.4l-4.1,4.8c-0.5,0.6-0.5,0.6-1,1.2
		l-7.1,8.3c-0.7,0.8-1.4,1.7-2,2.6c-3.3,3.9-6.8,7.8-10,11.8c-0.4,0.5-0.7,0.7-1,1.1c-3.1,4.2-6.9,8-10.2,12.1l-4.9,5.9
		c-4.1,4.9-7.9,9.8-12.2,14.5l-2,2.3c-0.6,0.7-1.4,1.7-2,2.4c-0.7,0.8-1.5,1.7-2.1,2.5l-14,16.7c-0.4,0.5-0.7,0.7-1,1.1l-7.1,8.5
		C106.1,151.3,105,152.4,104.7,153.2L104.7,153.2z"/>
</g>
</svg>
